<svg width="41" height="41" viewBox="0 0 41 41" fill="none" xmlns="http://www.w3.org/2000/svg">
<path d="M11.1338 29.2351C11.8076 30.2213 13.8526 32.3265 16.6421 32.8569M16.8515 37.5834C15.0945 37.294 3.41669 33.4931 3.41669 20.6582C3.41669 8.64981 13.6699 3.41669 20.5014 3.41669C27.3327 3.41669 37.5834 8.64981 37.5834 20.6582C37.5834 33.4931 25.9055 37.294 24.1485 37.5834C24.1485 37.5834 23.7915 31.7453 23.9999 30.7447C24.2081 29.7443 23.4985 28.1342 23.4985 28.1342C25.1573 27.5136 27.6824 26.6239 28.5294 24.2368C29.1866 22.3847 29.6 19.6951 27.7618 17.1669C27.7618 17.1669 28.2418 13.0826 27.3327 12.9244C26.4237 12.7662 23.7455 14.5412 23.7455 14.5412C22.9655 14.3201 21.2249 13.8969 20.5031 13.9731C19.7812 13.8969 18.0346 14.3201 17.2545 14.5412C17.2545 14.5412 14.5764 12.7662 13.6673 12.9244C12.7582 13.0826 13.2382 17.1669 13.2382 17.1669C11.4 19.6951 11.8134 22.3847 12.4707 24.2368C13.3178 26.6239 15.8428 27.5136 17.5016 28.1342C17.5016 28.1342 16.792 29.7443 17.0002 30.7447C17.2086 31.7453 16.8515 37.5834 16.8515 37.5834Z" stroke="#305853" stroke-opacity="0.533333" stroke-width="1.5" stroke-linecap="round" stroke-linejoin="round"/>
</svg>
